<svg xmlns="http://www.w3.org/2000/svg" xmlns:xlink="http://www.w3.org/1999/xlink" width="500" zoomAndPan="magnify" viewBox="0 0 375 374.999991" height="500" preserveAspectRatio="xMidYMid meet" version="1.0"><defs><clipPath id="7958014c05"><path d="M 75.222656 74.816406 L 299.472656 74.816406 L 299.472656 299.816406 L 75.222656 299.816406 Z M 75.222656 74.816406 " clip-rule="nonzero"/></clipPath></defs><g clip-path="url(#7958014c05)"><path fill="#ffffff" d="M 299.390625 178.664062 C 299.394531 178.582031 299.378906 178.503906 299.355469 178.429688 C 299.351562 178.425781 299.355469 178.417969 299.351562 178.414062 L 277.003906 119.738281 C 277.003906 119.730469 276.992188 119.726562 276.992188 119.71875 C 276.953125 119.632812 276.902344 119.550781 276.824219 119.488281 L 227.679688 80.402344 C 227.601562 80.339844 227.507812 80.296875 227.40625 80.277344 C 227.398438 80.277344 227.390625 80.277344 227.382812 80.277344 L 187.269531 74.820312 C 187.191406 74.8125 187.105469 74.816406 187.03125 74.839844 L 167.910156 80.269531 L 167.367188 80.269531 C 167.257812 80.269531 167.15625 80.300781 167.066406 80.355469 C 167.0625 80.355469 167.0625 80.355469 167.0625 80.355469 L 166.574219 80.648438 L 119.519531 94.019531 C 119.503906 94.027344 119.492188 94.039062 119.480469 94.042969 C 119.417969 94.066406 119.359375 94.101562 119.308594 94.144531 C 119.285156 94.164062 119.265625 94.175781 119.246094 94.199219 C 119.234375 94.210938 119.222656 94.214844 119.214844 94.226562 L 78.003906 147.714844 C 77.992188 147.730469 77.988281 147.75 77.976562 147.765625 C 77.960938 147.789062 77.945312 147.8125 77.933594 147.835938 C 77.925781 147.851562 77.925781 147.871094 77.917969 147.886719 C 77.910156 147.917969 77.902344 147.949219 77.898438 147.984375 C 77.894531 148.003906 77.886719 148.019531 77.882812 148.039062 L 75.289062 195.078125 C 75.285156 195.121094 75.289062 195.164062 75.292969 195.203125 L 79.09375 218.996094 C 79.097656 219.027344 79.117188 219.050781 79.125 219.082031 C 79.128906 219.101562 79.128906 219.125 79.136719 219.140625 C 79.140625 219.148438 79.144531 219.152344 79.148438 219.15625 C 79.148438 219.164062 79.148438 219.167969 79.152344 219.175781 L 98.339844 255.710938 C 98.371094 255.777344 98.417969 255.832031 98.46875 255.878906 L 120.972656 275.769531 C 121.007812 275.8125 121.046875 275.847656 121.09375 275.875 L 147.113281 293.410156 C 147.1875 293.460938 147.265625 293.488281 147.351562 293.503906 L 188.175781 299.851562 L 188.183594 299.851562 C 188.1875 299.851562 188.1875 299.855469 188.191406 299.855469 C 188.222656 299.859375 188.25 299.859375 188.28125 299.859375 C 188.324219 299.859375 188.363281 299.855469 188.402344 299.847656 C 188.402344 299.847656 188.402344 299.847656 188.40625 299.847656 C 188.410156 299.847656 188.410156 299.847656 188.410156 299.84375 C 188.414062 299.84375 188.417969 299.84375 188.421875 299.84375 C 188.421875 299.84375 188.425781 299.839844 188.425781 299.839844 L 188.429688 299.839844 C 188.429688 299.839844 188.429688 299.839844 188.433594 299.839844 C 188.433594 299.839844 188.433594 299.839844 188.4375 299.839844 C 188.4375 299.835938 188.441406 299.835938 188.441406 299.835938 L 255.152344 280.34375 C 255.175781 280.335938 255.191406 280.3125 255.214844 280.300781 C 255.277344 280.273438 255.328125 280.234375 255.378906 280.1875 C 255.402344 280.164062 255.4375 280.160156 255.453125 280.132812 L 296.039062 226.621094 C 296.101562 226.535156 296.132812 226.4375 296.144531 226.335938 C 296.144531 226.324219 296.15625 226.316406 296.15625 226.304688 Z M 295.015625 225.800781 L 277.464844 230.234375 L 297.984375 182.054688 Z M 223.792969 218.972656 L 159.113281 196.21875 L 207.894531 161.097656 Z M 207.898438 159.199219 L 159.253906 127.386719 L 222.5 109.296875 Z M 207.203125 160.148438 L 158.445312 195.253906 L 158.445312 128.261719 Z M 157.269531 195.457031 L 101.9375 168.304688 L 157.269531 128.324219 Z M 169.253906 260.558594 L 116.507812 231.003906 L 157.464844 197.484375 Z M 158.621094 197.292969 L 223.4375 220.09375 L 170.464844 260.636719 Z M 224.148438 221.03125 L 227.5625 269.507812 L 171.523438 261.304688 Z M 224.898438 218.566406 L 209.03125 160.796875 L 262.996094 166.1875 Z M 263.746094 167.152344 L 275.714844 230.332031 L 225.660156 219.515625 Z M 276.675781 229.085938 L 264.84375 166.621094 L 298.019531 178.960938 Z M 263.832031 164.351562 L 224.71875 109.335938 L 275.730469 120.394531 Z M 262.84375 164.992188 L 209.003906 159.613281 L 223.585938 109.765625 Z M 158.628906 126.34375 L 167.789062 81.722656 L 221.738281 108.292969 Z M 157.414062 126.410156 L 116.03125 112.574219 L 166.519531 82.054688 Z M 156.585938 127.371094 L 101.761719 166.980469 L 115.058594 113.488281 Z M 100.46875 167.300781 L 79.324219 148.058594 L 113.570312 114.597656 Z M 114.117188 112.417969 L 84.03125 141.816406 L 118.308594 97.328125 Z M 100.101562 168.554688 L 80.214844 216.085938 L 79.082031 149.421875 Z M 100.644531 170.300781 L 114.652344 230.199219 L 80.457031 218.546875 Z M 101.65625 169.472656 L 156.777344 196.523438 L 115.824219 230.042969 Z M 168.535156 261.503906 L 121.90625 274.632812 L 116.207031 232.183594 Z M 169.746094 262.382812 L 187.125 298.234375 L 123.34375 275.449219 Z M 188.5 298.382812 L 171.074219 262.425781 L 226.691406 270.570312 Z M 228.707031 269.03125 L 225.296875 220.640625 L 275.136719 231.410156 Z M 274.941406 233.082031 L 254.671875 279.039062 L 229.382812 269.996094 Z M 276.878906 231.597656 L 294.09375 227.246094 L 257.546875 275.433594 Z M 264.777344 165.339844 L 276.550781 121.847656 L 297.792969 177.621094 Z M 227.742188 81.957031 L 274.121094 118.84375 L 224.019531 107.980469 Z M 187.234375 76 L 218.628906 80.269531 L 172.210938 80.269531 Z M 226.628906 81.445312 L 222.894531 107.554688 L 169.890625 81.445312 Z M 115.605469 111.460938 L 120.15625 95.0625 L 162.761719 82.953125 Z M 76.460938 195.082031 L 78.15625 164.367188 L 78.941406 210.613281 Z M 99.328125 255.070312 L 83.757812 225.421875 L 117.632812 271.253906 Z M 81.261719 220.0625 L 114.933594 231.535156 L 120.527344 273.195312 Z M 125.605469 277.503906 L 182.242188 297.738281 L 147.660156 292.359375 Z M 228.296875 270.855469 L 253.085938 279.722656 L 191.347656 297.761719 Z M 228.296875 270.855469 " fill-opacity="1" fill-rule="nonzero"/></g></svg>